<?xml version="1.0" encoding="utf-8"?>
<svg xmlns="http://www.w3.org/2000/svg" style="margin: auto; background: none; display: block; shape-rendering: auto;" width="280" height="250" preserveAspectRatio="xMidYMid">
<style type="text/css">
  text {
    text-anchor: middle; font-size: 80px; opacity: 0;
  }
</style>
<g style="transform-origin:140px 125px;transform:scale(1)">
<g transform="translate(140,125)">
  <g transform="translate(0,0)"><g class="path" style="opacity: 1; transform-origin: -102.595px -6.46834px; animation: 1s linear -0.565714s infinite normal forwards running fade-27547dc0-3505-47a4-8b8d-6d949308b742;"><path d="M38.55 0L32.73 0L17.54-23.91L10.63-23.91L10.63 0L5.59 0L5.59-56.02L23.36-56.02L23.36-56.02Q26.21-56.02 28.71-54.94L28.71-54.94L28.71-54.94Q31.21-53.87 33.09-51.99L33.09-51.99L33.09-51.99Q34.96-50.12 36.04-47.60L36.04-47.60L36.04-47.60Q37.11-45.08 37.11-42.23L37.11-42.23L37.11-37.70L37.11-37.70Q37.11-34.84 36.04-32.32L36.04-32.32L36.04-32.32Q34.96-29.80 33.09-27.93L33.09-27.93L33.09-27.93Q31.21-26.05 28.71-24.98L28.71-24.98L28.71-24.98Q26.21-23.91 23.36-23.91L23.36-23.91L38.55 0zM32.07-37.70L32.07-42.23L32.07-42.23Q32.07-44.10 31.37-45.72L31.37-45.72L31.37-45.72Q30.66-47.34 29.45-48.57L29.45-48.57L29.45-48.57Q28.24-49.80 26.62-50.51L26.62-50.51L26.62-50.51Q25-51.21 23.13-51.21L23.13-51.21L10.63-51.21L10.63-28.71L23.13-28.71L23.13-28.71Q25-28.71 26.62-29.41L26.62-29.41L26.62-29.41Q28.24-30.12 29.45-31.35L29.45-31.35L29.45-31.35Q30.66-32.58 31.37-34.20L31.37-34.20L31.37-34.20Q32.07-35.82 32.07-37.70L32.07-37.70" fill="#0051a2" stroke="none" stroke-width="none" transform="translate(-124.66500854492188,21.541658368791857)" style="fill: rgb(0, 81, 162);"></path></g><g class="path" style="opacity: 1; transform-origin: -64.745px 1.54166px; animation: 1s linear -0.471429s infinite normal forwards running fade-27547dc0-3505-47a4-8b8d-6d949308b742;"><path d="M73.28-10.98L73.28-10.98L73.28-10.98Q73.28-8.55 72.36-6.41L72.36-6.41L72.36-6.41Q71.45-4.26 69.84-2.66L69.84-2.66L69.84-2.66Q68.24-1.05 66.09-0.14L66.09-0.14L66.09-0.14Q63.95 0.78 61.52 0.78L61.52 0.78L58.32 0.78L58.32 0.78Q55.90 0.78 53.75-0.14L53.75-0.14L53.75-0.14Q51.60-1.05 50-2.66L50-2.66L50-2.66Q48.40-4.26 47.48-6.41L47.48-6.41L47.48-6.41Q46.56-8.55 46.56-10.98L46.56-10.98L46.56-29.02L46.56-29.02Q46.56-31.45 47.48-33.59L47.48-33.59L47.48-33.59Q48.40-35.74 50-37.34L50-37.34L50-37.34Q51.60-38.95 53.75-39.86L53.75-39.86L53.75-39.86Q55.90-40.78 58.32-40.78L58.32-40.78L61.52-40.78L61.52-40.78Q63.95-40.78 66.09-39.86L66.09-39.86L66.09-39.86Q68.24-38.95 69.84-37.34L69.84-37.34L69.84-37.34Q71.45-35.74 72.36-33.59L72.36-33.59L72.36-33.59Q73.28-31.45 73.28-29.02L73.28-29.02L73.28-19.61L51.37-19.61L51.37-10.70L51.37-10.70Q51.37-9.26 51.91-7.99L51.91-7.99L51.91-7.99Q52.46-6.72 53.40-5.78L53.40-5.78L53.40-5.78Q54.34-4.84 55.61-4.30L55.61-4.30L55.61-4.30Q56.88-3.75 58.32-3.75L58.32-3.75L61.52-3.75L61.52-3.75Q62.97-3.75 64.24-4.30L64.24-4.30L64.24-4.30Q65.51-4.84 66.45-5.78L66.45-5.78L66.45-5.78Q67.38-6.72 67.93-7.99L67.93-7.99L67.93-7.99Q68.48-9.26 68.48-10.70L68.48-10.70L68.48-13.36L73.28-12.58L73.28-10.98zM68.48-23.36L68.48-29.30L68.48-29.30Q68.48-30.74 67.93-32.01L67.93-32.01L67.93-32.01Q67.38-33.28 66.45-34.22L66.45-34.22L66.45-34.22Q65.51-35.16 64.24-35.70L64.24-35.70L64.24-35.70Q62.97-36.25 61.52-36.25L61.52-36.25L58.32-36.25L58.32-36.25Q56.88-36.25 55.61-35.70L55.61-35.70L55.61-35.70Q54.34-35.16 53.40-34.22L53.40-34.22L53.40-34.22Q52.46-33.28 51.91-32.01L51.91-32.01L51.91-32.01Q51.37-30.74 51.37-29.30L51.37-29.30L51.37-23.36L68.48-23.36" fill="#0051a2" stroke="none" stroke-width="none" transform="translate(-124.66500854492188,21.541658368791857)" style="fill: rgb(27, 117, 190);"></path></g><g class="path" style="opacity: 1; transform-origin: -28.415px -6.07834px; animation: 1s linear -0.377143s infinite normal forwards running fade-27547dc0-3505-47a4-8b8d-6d949308b742;"><path d="M109.61-10.98L109.61-10.98L109.61-10.98Q109.61-8.55 108.69-6.41L108.69-6.41L108.69-6.41Q107.77-4.26 106.17-2.66L106.17-2.66L106.17-2.66Q104.57-1.05 102.42-0.14L102.42-0.14L102.42-0.14Q100.27 0.78 97.85 0.78L97.85 0.78L94.65 0.78L94.65 0.78Q92.23 0.78 90.08-0.14L90.08-0.14L90.08-0.14Q87.93-1.05 86.33-2.66L86.33-2.66L86.33-2.66Q84.73-4.26 83.81-6.41L83.81-6.41L83.81-6.41Q82.89-8.55 82.89-10.98L82.89-10.98L82.89-56.02L87.70-56.02L87.70-36.64L87.70-36.64Q89.34-38.59 91.64-39.69L91.64-39.69L91.64-39.69Q93.95-40.78 96.64-40.78L96.64-40.78L97.85-40.78L97.85-40.78Q100.27-40.78 102.42-39.86L102.42-39.86L102.42-39.86Q104.57-38.95 106.17-37.34L106.17-37.34L106.17-37.34Q107.77-35.74 108.69-33.59L108.69-33.59L108.69-33.59Q109.61-31.45 109.61-29.02L109.61-29.02L109.61-10.98zM104.80-10.70L104.80-29.30L104.80-29.30Q104.80-30.74 104.26-32.01L104.26-32.01L104.26-32.01Q103.71-33.28 102.77-34.22L102.77-34.22L102.77-34.22Q101.84-35.16 100.57-35.70L100.57-35.70L100.57-35.70Q99.30-36.25 97.85-36.25L97.85-36.25L94.65-36.25L94.65-36.25Q93.20-36.25 91.93-35.70L91.93-35.70L91.93-35.70Q90.66-35.16 89.73-34.22L89.73-34.22L89.73-34.22Q88.79-33.28 88.24-32.01L88.24-32.01L88.24-32.01Q87.70-30.74 87.70-29.30L87.70-29.30L87.70-10.70L87.70-10.70Q87.70-9.26 88.24-7.99L88.24-7.99L88.24-7.99Q88.79-6.72 89.73-5.78L89.73-5.78L89.73-5.78Q90.66-4.84 91.93-4.30L91.93-4.30L91.93-4.30Q93.20-3.75 94.65-3.75L94.65-3.75L97.85-3.75L97.85-3.75Q99.30-3.75 100.57-4.30L100.57-4.30L100.57-4.30Q101.84-4.84 102.77-5.78L102.77-5.78L102.77-5.78Q103.71-6.72 104.26-7.99L104.26-7.99L104.26-7.99Q104.80-9.26 104.80-10.70L104.80-10.70" fill="#0051a2" stroke="none" stroke-width="none" transform="translate(-124.66500854492188,21.541658368791857)" style="fill: rgb(64, 142, 224);"></path></g><g class="path" style="opacity: 1; transform-origin: 7.91499px 1.54166px; animation: 1s linear -0.282857s infinite normal forwards running fade-27547dc0-3505-47a4-8b8d-6d949308b742;"><path d="M145.94-10.98L145.94-10.98L145.94-10.98Q145.94-8.55 145.02-6.41L145.02-6.41L145.02-6.41Q144.10-4.26 142.50-2.66L142.50-2.66L142.50-2.66Q140.90-1.05 138.75-0.14L138.75-0.14L138.75-0.14Q136.60 0.78 134.18 0.78L134.18 0.78L130.98 0.78L130.98 0.78Q128.55 0.78 126.41-0.14L126.41-0.14L126.41-0.14Q124.26-1.05 122.66-2.66L122.66-2.66L122.66-2.66Q121.05-4.26 120.14-6.41L120.14-6.41L120.14-6.41Q119.22-8.55 119.22-10.98L119.22-10.98L119.22-29.02L119.22-29.02Q119.22-31.45 120.14-33.59L120.14-33.59L120.14-33.59Q121.05-35.74 122.66-37.34L122.66-37.34L122.66-37.34Q124.26-38.95 126.41-39.86L126.41-39.86L126.41-39.86Q128.55-40.78 130.98-40.78L130.98-40.78L134.18-40.78L134.18-40.78Q136.60-40.78 138.75-39.86L138.75-39.86L138.75-39.86Q140.90-38.95 142.50-37.34L142.50-37.34L142.50-37.34Q144.10-35.74 145.02-33.59L145.02-33.59L145.02-33.59Q145.94-31.45 145.94-29.02L145.94-29.02L145.94-19.61L124.02-19.61L124.02-10.70L124.02-10.70Q124.02-9.26 124.57-7.99L124.57-7.99L124.57-7.99Q125.12-6.72 126.05-5.78L126.05-5.78L126.05-5.78Q126.99-4.84 128.26-4.30L128.26-4.30L128.26-4.30Q129.53-3.75 130.98-3.75L130.98-3.75L134.18-3.75L134.18-3.75Q135.63-3.75 136.89-4.30L136.89-4.30L136.89-4.30Q138.16-4.84 139.10-5.78L139.10-5.78L139.10-5.78Q140.04-6.72 140.59-7.99L140.59-7.99L140.59-7.99Q141.13-9.26 141.13-10.70L141.13-10.70L141.13-13.36L145.94-12.58L145.94-10.98zM141.13-23.36L141.13-29.30L141.13-29.30Q141.13-30.74 140.59-32.01L140.59-32.01L140.59-32.01Q140.04-33.28 139.10-34.22L139.10-34.22L139.10-34.22Q138.16-35.16 136.89-35.70L136.89-35.70L136.89-35.70Q135.63-36.25 134.18-36.25L134.18-36.25L130.98-36.25L130.98-36.25Q129.53-36.25 128.26-35.70L128.26-35.70L128.26-35.70Q126.99-35.16 126.05-34.22L126.05-34.22L126.05-34.22Q125.12-33.28 124.57-32.01L124.57-32.01L124.57-32.01Q124.02-30.74 124.02-29.30L124.02-29.30L124.02-23.36L141.13-23.36" fill="#0051a2" stroke="none" stroke-width="none" transform="translate(-124.66500854492188,21.541658368791857)" style="fill: rgb(137, 191, 248);"></path></g><g class="path" style="opacity: 1; transform-origin: 44.245px 1.54166px; animation: 1s linear -0.188571s infinite normal forwards running fade-27547dc0-3505-47a4-8b8d-6d949308b742;"><path d="M182.27-10.98L182.27-10.98L182.27-10.98Q182.27-8.55 181.35-6.41L181.35-6.41L181.35-6.41Q180.43-4.26 178.83-2.66L178.83-2.66L178.83-2.66Q177.23-1.05 175.08-0.14L175.08-0.14L175.08-0.14Q172.93 0.78 170.51 0.78L170.51 0.78L167.30 0.78L167.30 0.78Q164.88 0.78 162.73-0.14L162.73-0.14L162.73-0.14Q160.59-1.05 158.98-2.66L158.98-2.66L158.98-2.66Q157.38-4.26 156.46-6.41L156.46-6.41L156.46-6.41Q155.55-8.55 155.55-10.98L155.55-10.98L155.55-29.02L155.55-29.02Q155.55-31.45 156.46-33.59L156.46-33.59L156.46-33.59Q157.38-35.74 158.98-37.34L158.98-37.34L158.98-37.34Q160.59-38.95 162.73-39.86L162.73-39.86L162.73-39.86Q164.88-40.78 167.30-40.78L167.30-40.78L170.51-40.78L170.51-40.78Q172.93-40.78 175.08-39.86L175.08-39.86L175.08-39.86Q177.23-38.95 178.83-37.34L178.83-37.34L178.83-37.34Q180.43-35.74 181.35-33.59L181.35-33.59L181.35-33.59Q182.27-31.45 182.27-29.02L182.27-29.02L182.27-27.42L177.46-26.64L177.46-29.30L177.46-29.30Q177.46-30.74 176.91-32.01L176.91-32.01L176.91-32.01Q176.37-33.28 175.43-34.22L175.43-34.22L175.43-34.22Q174.49-35.16 173.22-35.70L173.22-35.70L173.22-35.70Q171.95-36.25 170.51-36.25L170.51-36.25L167.30-36.25L167.30-36.25Q165.86-36.25 164.59-35.70L164.59-35.70L164.59-35.70Q163.32-35.16 162.38-34.22L162.38-34.22L162.38-34.22Q161.45-33.28 160.90-32.01L160.90-32.01L160.90-32.01Q160.35-30.74 160.35-29.30L160.35-29.30L160.35-10.70L160.35-10.70Q160.35-9.26 160.90-7.99L160.90-7.99L160.90-7.99Q161.45-6.72 162.38-5.78L162.38-5.78L162.38-5.78Q163.32-4.84 164.59-4.30L164.59-4.30L164.59-4.30Q165.86-3.75 167.30-3.75L167.30-3.75L170.51-3.75L170.51-3.75Q171.95-3.75 173.22-4.30L173.22-4.30L173.22-4.30Q174.49-4.84 175.43-5.78L175.43-5.78L175.43-5.78Q176.37-6.72 176.91-7.99L176.91-7.99L176.91-7.99Q177.46-9.26 177.46-10.70L177.46-10.70L177.46-13.36L182.27-12.58L182.27-10.98" fill="#0051a2" stroke="none" stroke-width="none" transform="translate(-124.66500854492188,21.541658368791857)" style="fill: rgb(0, 81, 162);"></path></g><g class="path" style="opacity: 1; transform-origin: 80.57px 1.54166px; animation: 1s linear -0.0942857s infinite normal forwards running fade-27547dc0-3505-47a4-8b8d-6d949308b742;"><path d="M218.59-10.98L218.59-10.98L218.59-10.98Q218.59-8.55 217.68-6.41L217.68-6.41L217.68-6.41Q216.76-4.26 215.16-2.66L215.16-2.66L215.16-2.66Q213.55-1.05 211.41-0.14L211.41-0.14L211.41-0.14Q209.26 0.78 206.84 0.78L206.84 0.78L203.63 0.78L203.63 0.78Q201.21 0.78 199.06-0.14L199.06-0.14L199.06-0.14Q196.91-1.05 195.31-2.66L195.31-2.66L195.31-2.66Q193.71-4.26 192.79-6.41L192.79-6.41L192.79-6.41Q191.88-8.55 191.88-10.98L191.88-10.98L191.88-29.02L191.88-29.02Q191.88-31.45 192.79-33.59L192.79-33.59L192.79-33.59Q193.71-35.74 195.31-37.34L195.31-37.34L195.31-37.34Q196.91-38.95 199.06-39.86L199.06-39.86L199.06-39.86Q201.21-40.78 203.63-40.78L203.63-40.78L206.84-40.78L206.84-40.78Q209.26-40.78 211.41-39.86L211.41-39.86L211.41-39.86Q213.55-38.95 215.16-37.34L215.16-37.34L215.16-37.34Q216.76-35.74 217.68-33.59L217.68-33.59L217.68-33.59Q218.59-31.45 218.59-29.02L218.59-29.02L218.59-27.42L213.79-26.64L213.79-29.30L213.79-29.30Q213.79-30.74 213.24-32.01L213.24-32.01L213.24-32.01Q212.70-33.28 211.76-34.22L211.76-34.22L211.76-34.22Q210.82-35.16 209.55-35.70L209.55-35.70L209.55-35.70Q208.28-36.25 206.84-36.25L206.84-36.25L203.63-36.25L203.63-36.25Q202.19-36.25 200.92-35.70L200.92-35.70L200.92-35.70Q199.65-35.16 198.71-34.22L198.71-34.22L198.71-34.22Q197.77-33.28 197.23-32.01L197.23-32.01L197.23-32.01Q196.68-30.74 196.68-29.30L196.68-29.30L196.68-10.70L196.68-10.70Q196.68-9.26 197.23-7.99L197.23-7.99L197.23-7.99Q197.77-6.72 198.71-5.78L198.71-5.78L198.71-5.78Q199.65-4.84 200.92-4.30L200.92-4.30L200.92-4.30Q202.19-3.75 203.63-3.75L203.63-3.75L206.84-3.75L206.84-3.75Q208.28-3.75 209.55-4.30L209.55-4.30L209.55-4.30Q210.82-4.84 211.76-5.78L211.76-5.78L211.76-5.78Q212.70-6.72 213.24-7.99L213.24-7.99L213.24-7.99Q213.79-9.26 213.79-10.70L213.79-10.70L213.79-13.36L218.59-12.58L218.59-10.98" fill="#0051a2" stroke="none" stroke-width="none" transform="translate(-124.66500854492188,21.541658368791857)" style="fill: rgb(27, 117, 190);"></path></g><g class="path" style="opacity: 1; transform-origin: 116.895px 1.54166px; animation: 1s linear 0s infinite normal forwards running fade-27547dc0-3505-47a4-8b8d-6d949308b742;"><path d="M254.92 0L253.32 0L250.66-3.98L250.66-3.98Q249.02-1.84 246.56-0.53L246.56-0.53L246.56-0.53Q244.10 0.78 241.17 0.78L241.17 0.78L239.96 0.78L239.96 0.78Q237.54 0.78 235.39-0.14L235.39-0.14L235.39-0.14Q233.24-1.05 231.64-2.66L231.64-2.66L231.64-2.66Q230.04-4.26 229.12-6.41L229.12-6.41L229.12-6.41Q228.20-8.55 228.20-10.98L228.20-10.98L228.20-11.37L228.20-11.37Q228.20-13.79 229.12-15.94L229.12-15.94L229.12-15.94Q230.04-18.09 231.64-19.69L231.64-19.69L231.64-19.69Q233.24-21.29 235.39-22.21L235.39-22.21L235.39-22.21Q237.54-23.13 239.96-23.13L239.96-23.13L250.12-23.13L250.12-29.30L250.12-29.30Q250.12-30.74 249.57-32.01L249.57-32.01L249.57-32.01Q249.02-33.28 248.09-34.22L248.09-34.22L248.09-34.22Q247.15-35.16 245.88-35.70L245.88-35.70L245.88-35.70Q244.61-36.25 243.16-36.25L243.16-36.25L240.35-36.25L240.35-36.25Q238.91-36.25 237.64-35.70L237.64-35.70L237.64-35.70Q236.37-35.16 235.43-34.22L235.43-34.22L235.43-34.22Q234.49-33.28 233.95-32.01L233.95-32.01L233.95-32.01Q233.40-30.74 233.40-29.30L233.40-29.30L233.40-27.85L228.59-28.63L228.59-29.02L228.59-29.02Q228.59-31.45 229.51-33.59L229.51-33.59L229.51-33.59Q230.43-35.74 232.03-37.34L232.03-37.34L232.03-37.34Q233.63-38.95 235.78-39.86L235.78-39.86L235.78-39.86Q237.93-40.78 240.35-40.78L240.35-40.78L243.16-40.78L243.16-40.78Q245.59-40.78 247.73-39.86L247.73-39.86L247.73-39.86Q249.88-38.95 251.48-37.34L251.48-37.34L251.48-37.34Q253.09-35.74 254.00-33.59L254.00-33.59L254.00-33.59Q254.92-31.45 254.92-29.02L254.92-29.02L254.92 0zM250.12-10.70L250.12-19.38L239.96-19.38L239.96-19.38Q238.52-19.38 237.25-18.83L237.25-18.83L237.25-18.83Q235.98-18.28 235.04-17.32L235.04-17.32L235.04-17.32Q234.10-16.37 233.55-15.10L233.55-15.10L233.55-15.10Q233.01-13.83 233.01-12.38L233.01-12.38L233.01-10.70L233.01-10.70Q233.01-9.26 233.55-7.99L233.55-7.99L233.55-7.99Q234.10-6.72 235.04-5.78L235.04-5.78L235.04-5.78Q235.98-4.84 237.25-4.30L237.25-4.30L237.25-4.30Q238.52-3.75 239.96-3.75L239.96-3.75L243.16-3.75L243.16-3.75Q244.61-3.75 245.88-4.30L245.88-4.30L245.88-4.30Q247.15-4.84 248.09-5.78L248.09-5.78L248.09-5.78Q249.02-6.72 249.57-7.99L249.57-7.99L249.57-7.99Q250.12-9.26 250.12-10.70L250.12-10.70" fill="#0051a2" stroke="none" stroke-width="none" transform="translate(-124.66500854492188,21.541658368791857)" style="fill: rgb(64, 142, 224);"></path></g></g>
</g>
</g>
<style id="fade-27547dc0-3505-47a4-8b8d-6d949308b742" data-anikit="">@keyframes fade-27547dc0-3505-47a4-8b8d-6d949308b742
{
  0% {
    animation-timing-function: cubic-bezier(0.2057,0.573,0.3723,0.9184);
    opacity: 1;
  }
  100% {
    opacity: 0;
  }
}</style></svg>